# xmcd
#
# Track frame offsets:
#	150
#	43965
#	81057
#	114237
#	136292
#	166150
#	202475
#	240582
#
# Disc length: 3584 seconds
#
# Revision: 0
# Processed by: cddbd v1.5.2PL0 Copyright (c) Steve Scherf et al.
# Submitted via: MuRip v0.0a, 2017.04.22 19:34:47
#
DISCID=6a0dfe08
DTITLE=Quest - Sojourner
DYEAR=1900
DGENRE=
TTITLE0=Reunion
TTITLE1=Sky Song
TTITLE2=Desert Moon
TTITLE3=Katmandu
TTITLE4=Zambezi Dawn
TTITLE5=Subliminal Zone
TTITLE6=Raindance
TTITLE7=Pacifica
EXTD=
EXTT0=
EXTT1=
EXTT2=
EXTT3=
EXTT4=
EXTT5=
EXTT6=
EXTT7=
PLAYORDER=
